<svg version="1.0" xmlns="http://www.w3.org/2000/svg" width="128pt" height="128pt" viewBox="0 0 128 128" preserveAspectRatio="xMidYMid meet">
  <defs>
    <linearGradient id="smoothGradient" x1="0%" y1="0%" x2="100%" y2="100%">
      <stop offset="0%" style="stop-color:#841091;" />
      <stop offset="100%" style="stop-color:#DE0072;" />
    </linearGradient>
  </defs>
  <g transform="translate(0,128) scale(0.1,-0.1)" fill="url(#smoothGradient)" stroke="none">
    <path d="M238 1175 c-55 -20 -106 -62 -132 -109 -44 -77 -50 -129 -42 -415 6 -235 9 -269 27 -310 27 -61 63 -98 124 -127 44 -21 64 -24 176 -24 141 0 159 8 159 67 0 49 -20 57 -156 63 -124 5 -124 5 -156 38 l-33 32 -3 273 c-4 303 1 333 51 369 31 22 38 23 309 26 307 3 320 1 358 -61 16 -26 20 -50 20 -134 0 -94 2 -103 22 -117 30 -21 71 -20 91 2 14 15 17 40 17 133 0 132 -13 170 -78 235 -69 69 -100 74 -431 73 -216 0 -295 -4 -323 -14z"/>
    <path d="M292 967 c-42 -45 -19 -135 36 -138 63 -4 102 26 102 81 0 72 -89 109 -138 57z"/>
    <path d="M830 640 c-17 -17 -20 -33 -20 -105 l0 -85 -75 0 c-83 0 -115 -18 -115 -64 0 -48 28 -65 110 -68 l75 -3 3 -116 c3 -129 13 -151 69 -152 51 0 63 31 63 159 l0 113 131 3 c129 3 132 4 151 29 19 24 19 28 4 56 -8 17 -23 33 -31 37 -9 3 -70 6 -136 6 l-119 0 0 84 c0 79 -2 86 -26 105 -33 26 -58 27 -84 1z"/>
  </g>
</svg>
